<?xml version="1.0" encoding="UTF-8"?><svg id="Calque_2" xmlns="http://www.w3.org/2000/svg" viewBox="0 0 398.03 413.74"><defs><style>.cls-1{fill:#afafaf;opacity:.43;}.cls-2{fill:#ef5b6b;}.cls-3{fill:#e5b14a;}.cls-4{fill:none;stroke:#fff;stroke-miterlimit:10;stroke-width:9px;}.cls-5{fill:#543449;}.cls-6{fill:#ffcd5f;}.cls-7{fill:#cfe8ed;}.cls-8{fill:#9dd5d5;}</style></defs><g id="Calque_1-2"><g><g><polygon class="cls-5" points="207.25 36.05 103.04 66.65 31.92 148.73 16.46 256.23 61.58 355.02 152.94 413.74 261.55 413.74 352.92 355.02 398.03 256.23 382.58 148.73 311.45 66.65 207.25 36.05"/><polygon class="cls-5" points="207.25 58.08 115.19 85.11 52.37 157.61 38.71 252.58 78.57 339.85 159.28 391.72 255.22 391.72 335.93 339.85 375.78 252.58 362.13 157.61 299.3 85.11 207.25 58.08"/></g><g><polyline class="cls-8" points="207.25 40.24 105.35 70.16 35.81 150.42 20.69 255.54 64.81 352.14 154.15 409.55 260.34 409.55 349.68 352.14 393.8 255.54 378.69 150.42 309.14 70.16 207.25 40.24"/><polygon class="cls-4" points="207.25 61.78 117.24 88.21 55.8 159.11 42.45 251.96 81.42 337.3 160.34 388.01 254.15 388.01 333.07 337.3 372.04 251.96 358.69 159.11 297.26 88.21 207.25 61.78"/></g><g><path class="cls-5" d="M55.09,250.32h20.66l16.76,21.13h.95l16.76-21.13h20.66v66.64h-20.94v-38.37h-.95l-15.52,20.18h-.95l-15.52-20.18h-.95v38.37h-20.94v-66.64Z"/><path class="cls-5" d="M166.76,318.39c-19.52,0-29.04-12.66-29.04-28.27s9.9-28.37,28.47-28.37,27.7,10.85,27.7,29.61v1.81h-36.94c.48,5.9,4.38,8.38,9.33,8.38,4.09,0,6.57-1.62,8-4.09h19.33c-1.33,8.95-8.95,20.94-26.85,20.94Zm-9.62-32.65h18.37c-.95-5.33-4.57-7.43-9.23-7.43s-8.19,2.09-9.14,7.43Z"/><path class="cls-5" d="M200.56,263.17h21.13v7.62h.76c1.33-4.57,6.66-9.04,14.18-9.04,7.04,0,11.81,2.48,15.04,9.9h.76c1.33-4.76,6.85-9.9,15.8-9.9,10.28,0,18.56,5.24,18.56,20.94v34.27h-21.23v-30.18c0-4.38-2.09-6.38-5.71-6.38-3.43,0-5.71,2-5.71,6.38v30.18h-21.13v-30.18c0-4.38-2.09-6.38-5.62-6.38-3.33,0-5.71,2-5.71,6.38v30.18h-21.13v-53.79Z"/><path class="cls-5" d="M293.47,290.02c0-17.04,12-28.28,28.66-28.28s28.56,11.23,28.56,28.28-12,28.37-28.56,28.37c-18.56,0-28.66-11.81-28.66-28.37Zm37.89,0c0-6.28-4.09-9.62-9.23-9.62s-9.33,3.43-9.33,9.62,4.09,9.71,9.33,9.71,9.23-3.33,9.23-9.71Z"/></g><g><ellipse class="cls-1" cx="216.51" cy="233.97" rx="173.49" ry="10.06"/><g><path class="cls-3" d="M47.05,200.54c.03-1.78-1.07-3.55-3.38-3.54-2.13,0-4.27-.09-6.41-.08-.27-.01-.55-.02-.82-.02-2.61-.03-5.23,.02-7.85,.03-2.22,0-3.44,1.62-3.61,3.34-.04,.22-.05,.44-.02,.66,0,.16,.03,.32,.06,.47-.41,1.73-.49,3.75,1.02,4.85,1.78,1.29,5.01,.96,7.07,.81,2.48-.18,4.95-.52,7.36-1.12,2.23-.55,4.84-1.11,6.18-3.13,.49-.74,.56-1.53,.38-2.28Z"/><path class="cls-7" d="M22.61,205.09c0-1.83-.09-3.66-.31-5.47-.82-.26-1.63-.53-2.44-.8,.51-3.42,.41-7.06-1.59-10.01-1.67-2.45-4.73-4.09-7.72-3.7-3.08,.4-5.4,3.08-5.46,6.19-.03,1.46,.46,2.75,1.28,3.78-3.3,.86-6.22,3.35-6.36,6.94-.1,2.74,2.21,4.65,4.68,5.22,.36,.08,.74,.15,1.15,.21-.68,1.29-1,2.77-.81,4.29,.43,3.48,3.35,6.35,6.93,6.36,.61,0,1.17-.07,1.7-.19,.46,.06,.9,.07,1.33,.01,1.86-.27,2.77-1.87,3.24-3.54,.48-1.7,.68-4.83-.07-7.22,1.18-1.23,2.8-1.97,4.46-2.08Z"/><g><path class="cls-6" d="M324.98,110.57c.28-1.48,.42-3,.6-4.36,.04-.3,.07-.61,.11-.91,3.01,.13,5.6-1.81,6.78-4.75,.9-2.22,1.2-4.79,1.47-7.14,.24-2.19,.27-4.39,.11-6.58-.22-2.98-.35-6.39-2.53-8.65-.37-.69-.86-1.34-1.5-1.94-2.2-2.05-6.24-2.91-8.52-.33-1.93,2.18-2.84,4.39-2.99,7.31-.12,2.29-.03,4.59-.05,6.88-.05,5.07-.81,12.78,5.26,14.84-.03,.29-.06,.57-.09,.86-.16,1.34-.47,2.75-.71,4.17-5.21-1.49-10.81-2.74-16.83-3.72-.5-3.47-16.14-104.15-29.26-103.49-58.77-7.21-106.33,1.94-113.61,3.03-1.24-.13-2.82,.63-3.05,1.98-1.24,7.19-1.29,14.6-1.69,21.88-.4,7.3-.66,14.6-.98,21.9-.64,14.47-1.27,28.95-1.85,43.42-.15,3.67-.29,7.35-.44,11.02l-99.96,5.15c-10.59,.55-18.83,9.41-18.6,20.01l1.81,84.62,351.56-1.06s14.72-79.97-65.03-104.14Z"/><path class="cls-3" d="M385.98,200.99c-6.7-.28-13.82-1.45-19.42-5.39-4.46-3.14-7.15-8.06-10.17-12.47-1.64-2.4-3.42-4.7-5.56-6.67-2.46-2.27-5.43-3.91-8.36-5.5-10.83-5.86-23.38-7.89-35.59-6.9-20.68,1.68-43.01,12.08-52.9,31.1,.23,.89-.14,1.96-1.11,2.27-.05,.12-.11,.23-.16,.34-.69,1.57-52.15,2.05-76.67,2.07-.21,0-3.56,1.67-4.08-.19-3.02-10.73-8.29-21.33-17.44-28.1-14.41-10.67-36.41-13.29-52.5-7.81-17.46,5.95-31.08,20.91-43.66,34.41-1.03,1.1-20.29-.62-20.29-.62l.39,18.22,351.56-1.06s.98-5.33,1.06-13.65c-1.7,.03-3.4,.01-5.1-.06Z"/><path class="cls-2" d="M129.93,171.69c-9.38-4.2-19.67-3.28-28.97,.58-10.67,4.43-20.34,11.8-27.58,20.78-5.27,6.53-9.25,14.32-10.28,22.6l96.59-.43c-1.78-8.41-4.87-16.6-9.25-23.96-4.89-8.21-11.66-15.63-20.5-19.58Z"/><path class="cls-2" d="M304.54,174.54c-30.03,5.6-40.41,32.55-42.11,40.23l97.24-.43c-2.07-5.29-4.4-17.01-8.15-21.48-15.4-18.32-28.68-21.73-46.97-18.32Z"/><path class="cls-7" d="M271.93,19.04s-30.2-14.27-98.83,0c-4.86,1.01-7.93,75.79-6.16,87,.01,.06,.02,.13,.02,.19h127.09c-1-6.15-17.1-77.57-22.11-87.19Z"/><path class="cls-5" d="M127.73,193.8c-2.8-6.89-9.74-10.44-17.15-9.23-.28,.05-.55,.1-.83,.16-.47-.05-.94-.07-1.42-.07-6,.02-10.94,3.82-14.45,8.36-7.09,9.16-7.98,22.6-.16,31.61,3.02,3.48,6.94,5.6,11.09,6.44,3.13,1.11,6.54,1.38,9.83,.49,3.84-1.03,6.94-3.34,9.32-6.34,.34-.34,.67-.7,.99-1.07,7.1-8.28,8.52-21.04,2.78-30.36Z"/><path class="cls-5" d="M325.69,192.22c-4.51-4.57-11.21-5.63-17.37-5.28-4.69,.27-8.69,1.82-11.62,5.62-1.8,2.34-2.76,5.25-3.32,8.12-.32,1.62-.67,3.35-.98,5.11-1.56,4.75-2.28,9.97-1.39,14.73,1.37,7.29,7.88,11.45,14.89,12.05,1.95,.17,3.94,0,5.87-.44,.58-.05,1.15-.14,1.71-.28,1.5-.35,2.9-1.02,4.09-1.92,1.95-1.05,3.75-2.36,5.28-3.87,4.56-4.48,7.06-10.39,7.81-16.67,.72-6.01-.6-12.75-4.98-17.18Z"/><path class="cls-5" d="M313.02,116.71c-17.25-.73-34.56-.33-51.82-.33-17.28,0-34.55,.02-51.83,.02-16.09,0-32.19,.03-48.28,.05,0-.95,0-1.89-.01-2.84,0-2.62-.01-5.23-.04-7.85,0-.65-1-.68-1.01-.03-.03,3.57-.05,7.14-.07,10.71-18.08,.03-36.16,.06-54.24,.09-19.45,.03-38.92-.18-58.36,.39-.48,.01-.51,.74-.02,.76,17.26,.5,34.55,.35,51.82,.38,17.28,.02,34.55,.05,51.83,.08,2.99,0,5.99,0,8.98,.01-.1,21.88,.04,43.76,.04,65.64,0,7.4,0,14.79,0,22.19,0,.35,.27,.53,.54,.54,.27,0,.54-.16,.54-.51,0-26.01,0-52.03,0-78.04,0-2.3,0-4.6,0-6.9,0-.97,0-1.94,.01-2.91,31.18,.04,62.36,.07,93.53,.09,19.43,0,38.94,.5,58.36-.32,.77-.03,.82-1.18,.03-1.21Z"/><path class="cls-7" d="M329.29,80.05c-.22-1.43-1.68-3.05-3.12-3.32-3.56-.65-6.38,1.15-7.24,4.71-.32,1.36-.58,2.92-.56,4.47-.24,1.9-.3,3.84-.37,5.6-.16,3.91,.09,9.18,4.06,11.24,2.37,1.23,6,.59,6.68-2.48,1.49-6.74,1.6-13.41,.55-20.23Z"/><path class="cls-7" d="M121.51,205.39c-.49-4.18-2.69-8.08-6.79-9.62-4.5-1.68-8.99,.41-11.82,3.99-2.67,3.38-3.71,7.69-3.03,11.92,.72,4.49,4.09,8.53,8.82,8.9,.25,.02,.49,.03,.73,.03,3.63,1.19,7.76,.2,10.13-3.22,2.32-3.36,2.43-8.08,1.97-12Z"/><path class="cls-7" d="M319.83,199.05c-2.04-4-6.59-6.01-10.93-4.84-4.65,1.25-7.62,5.61-8.45,10.33-.85,3.49-.6,7.16,1.55,10.22,2.49,3.55,6.91,4.99,10.97,3.41,3.65-1.42,6.08-4.77,7.34-8.38,1.18-3.36,1.17-7.53-.47-10.74Z"/><path class="cls-6" d="M115.94,207.83c-.2-.82-.58-1.53-1.15-2.15-.32-.27-.64-.53-.96-.8-.75-.47-1.57-.72-2.45-.75-.64-.04-1.25,.08-1.82,.35-.6,.17-1.13,.48-1.58,.93-.5,.43-.85,.94-1.07,1.55-.32,.57-.48,1.19-.48,1.86,.04,.41,.09,.83,.13,1.24,.2,.82,.58,1.53,1.15,2.15,.32,.27,.64,.53,.96,.8,.75,.47,1.57,.72,2.45,.75,.64,.04,1.25-.08,1.82-.35,.6-.17,1.13-.48,1.58-.93,.5-.43,.85-.94,1.07-1.55,.32-.57,.48-1.19,.48-1.86-.04-.41-.09-.83-.13-1.24Z"/><path class="cls-6" d="M317.24,204.84c-.18-.75-.54-1.41-1.06-1.99-.29-.25-.59-.49-.88-.74-.69-.43-1.44-.66-2.26-.69-.38,.04-.76,.08-1.14,.12-.58,.12-1.08,.36-1.52,.73-.5,.3-.9,.7-1.2,1.21-.14,.23-.25,.46-.35,.7-.09,.18-.17,.37-.23,.57-.17,.49-.21,.99-.11,1.5,0,.49,.14,.96,.4,1.4,0,.01,.02,.03,.03,.04,.04,.09,.07,.17,.1,.26,.22,.31,.44,.62,.66,.92,.39,.46,.87,.79,1.42,.98,.53,.3,1.1,.44,1.71,.44,.59,.04,1.15-.07,1.67-.32,.55-.16,1.04-.44,1.46-.86,.46-.39,.79-.87,.98-1.42,.3-.53,.44-1.1,.44-1.71-.04-.38-.08-.76-.12-1.14Z"/><path class="cls-5" d="M286.53,105.27c-2.12-3.49-4.22-6.99-6.26-10.53-1.96-3.39-3.69-7.03-5.9-10.27,.37-.24,.74-.49,1.11-.75,2.56-1.81,7.01-5.08,6.31-8.82-.21-1.11-.89-1.46-1.94-1.58-2.2-.25-4.79,.34-6.91,.89-4.28,1.1-8.28,3.08-12.18,5.12-2.47,1.29-7.1,3.3-7.76,6.51-.75,1.38-.85,2.91,.74,4.05,1.18,.85,2.82,.61,4.16,.46,2.2-.23,4.37-.65,6.49-1.27,3.11-.91,6.1-2.25,8.87-3.93,1.32,3.53,3.31,6.88,5.11,10.16,2.03,3.69,4.17,7.31,6.42,10.87,.68,1.07,2.42,.16,1.75-.93Zm-14.55-28.89c1.53-.47,3.09-.83,4.68-1.02,.49-.06,2.23-.4,2.79-.15,.14,.06,.24,.12,.31,.19-.37,2.06-1.79,3.64-3.4,4.94-2.68,.06-5.4,.51-8.09,.86,.68-.78,1.35-1.57,2.02-2.37,.67-.79,1.41-1.48,1.69-2.46Zm-2.85,1c-.17,.23-.35,.45-.53,.67-.93,1.1-1.86,2.2-2.8,3.29-.04,.05-.09,.1-.13,.15-1.93,.17-3.89,.26-5.83,.45,.01,0,.03-.02,.04-.02,2.97-1.61,6.05-3.26,9.25-4.53Zm-8.65,10.52c-.71,.15-1.43,.28-2.14,.38-.82,.11-1.99,.22-2.71-.3-1.68-1.2-.31-2.74,.59-3.63,.38-.37,.79-.69,1.22-1,2.23,.12,4.52-.05,6.77-.24-1.29,1.42-2.61,2.86-3.62,4.44-.07,.12-.11,.23-.11,.34Zm6.4-2.04c-1.32,.54-2.7,1.04-4.11,1.46,1.45-1.34,2.75-2.91,4.03-4.41,.03,0,.07,0,.1,0,2.13-.15,4.34-.23,6.51-.46-2.07,1.34-4.26,2.48-6.54,3.42Z"/><path class="cls-5" d="M184.19,125.67c-.74-.42-1.54-.66-2.36-.8-.15-.04-.31-.07-.49-.07h0c-1.54-.18-3.15-.04-4.69-.04-2.83,0-5.67,.01-8.5,.02-.89,0-1.45,.54-1.66,1.21-.06,.06-.12,.11-.17,.17-.2,.23-.24,.52-.03,.77,.05,.06,.11,.11,.16,.16,.17,.68,.69,1.24,1.6,1.24,2.83,0,5.67,.01,8.5,.02,2.51,0,5.3,.4,7.56-.87,.65-.37,.77-1.4,.07-1.79Z"/><path class="cls-2" d="M379.89,141.98c-1.13-3.39-2.75-6.89-5.44-9.33-2.38-3.46-7.08-5.36-10.99-3.06-1.56,.92-2.71,2.18-3.44,3.62-.22,.38-.43,.8-.59,1.25-1.06,2.84-.03,6.17,1.45,8.65,.25,.35,.5,.71,.75,1.06,0,.01,.01,.02,.02,.04,.04,.08,.07,.15,.11,.23-.19-.21-.1-.09,.06,.12,.21,.45,.43,.9,.64,1.35,.24,.51,.84,2.3,.16,.19,.72,2.24,1.85,4.16,3.89,5.45,1.86,1.18,4.65,1.75,6.81,1.14,4.29-1.22,8.16-5.98,6.59-10.7Z"/><path class="cls-2" d="M42.23,190.32c-.08-3.26-.02-6.52-.12-9.77-.04-1.37-.58-2.43-1.37-3.16-.38-.72-.94-1.37-1.82-1.93-.63-.4-1.61-.51-2.27-.08-.76,.49-1.32,1.03-1.72,1.63-.92,.68-1.57,1.77-1.61,3.31-.1,3.25-.04,6.51-.12,9.77-.08,3.22-.39,6.55-.14,9.77,.2,2.51,1.83,4.71,4.54,4.78,2.31,.06,4.98-2.01,4.78-4.54,.25-3.22-.06-6.55-.14-9.77Z"/><path class="cls-2" d="M42.43,209.53c-.23-.33-.5-.63-.79-.89-.31-.33-.66-.63-1.05-.89-.85-.57-1.97-.91-2.97-.95-.57-.02-1.14,.07-1.7,.15-.3,.04-.61,.08-.91,.12-.71,.14-1.34,.44-1.88,.9-.62,.37-1.11,.87-1.48,1.5-.73,1.15-1.08,2.87-.7,4.2,.38,1.34,1.16,2.65,2.4,3.37,.45,.2,.89,.41,1.34,.61,.48,.14,.97,.22,1.45,.24h0c.28,.04,.57,.09,.85,.12,.12,.01,.22,.01,.34,.01,.75,.05,1.46-.09,2.12-.41,.3-.05,.56-.17,.8-.34,.51-.27,.95-.62,1.34-1.02,.07-.06,.14-.11,.21-.17,.66-.62,1.12-1.36,1.39-2.22,.46-1.52,.16-3.06-.74-4.34Z"/><path class="cls-7" d="M380.41,139.48c-.9-2.92-2.85-6.38-5.78-7.65-.56-.48-1.19-.9-1.9-1.24-1.74-.83-3.47-1.15-5.27-.2-1.57,.84-2.84,2.65-2.77,4.48,.12,3.35,.85,6.62,2.48,9.58,1.98,3.61,5.87,7.34,10.28,4.99,3.66-1.95,4.08-6.36,2.97-9.96Z"/></g></g></g><g><path class="cls-6" d="M50.08,254.08h20.66l16.76,21.13h.95l16.76-21.13h20.66v66.64h-20.94v-38.37h-.95l-15.52,20.18h-.95l-15.52-20.18h-.95v38.37h-20.94v-66.64Z"/><path class="cls-6" d="M161.75,322.15c-19.52,0-29.04-12.66-29.04-28.27s9.9-28.37,28.47-28.37,27.7,10.85,27.7,29.61v1.81h-36.94c.48,5.9,4.38,8.38,9.33,8.38,4.09,0,6.57-1.62,8-4.09h19.33c-1.33,8.95-8.95,20.94-26.85,20.94Zm-9.62-32.65h18.37c-.95-5.33-4.57-7.43-9.23-7.43s-8.19,2.09-9.14,7.43Z"/><path class="cls-6" d="M195.54,266.94h21.13v7.62h.76c1.33-4.57,6.66-9.04,14.18-9.04,7.04,0,11.81,2.48,15.04,9.9h.76c1.33-4.76,6.85-9.9,15.8-9.9,10.28,0,18.56,5.24,18.56,20.94v34.27h-21.23v-30.18c0-4.38-2.09-6.38-5.71-6.38-3.43,0-5.71,2-5.71,6.38v30.18h-21.13v-30.18c0-4.38-2.09-6.38-5.62-6.38-3.33,0-5.71,2-5.71,6.38v30.18h-21.13v-53.79Z"/><path class="cls-6" d="M288.46,293.78c0-17.04,12-28.28,28.66-28.28s28.56,11.23,28.56,28.28-12,28.37-28.56,28.37c-18.56,0-28.66-11.81-28.66-28.37Zm37.89,0c0-6.28-4.09-9.62-9.23-9.62s-9.33,3.43-9.33,9.62,4.09,9.71,9.33,9.71,9.23-3.33,9.23-9.71Z"/></g><path class="cls-2" d="M368.74,306.32c2.94,1.96,4.12,5.29,3.61,8.94-.36,1.53-.09,3.39-.5,5.09-.44,2.59-1.35,4.89-3.23,6.77-1.93,2.05-3.68,4.15-5.87,5.78l-3.07,2.32c-.59,.22-1.22,.61-1.86,.27-1.11-.62-1.95-.11-2.83,.58-.71,.73-1.85,.99-2.95,1.09-1.27,.06-1.87-.45-1.24-1.55,.2-.85,.74-1.62,1.25-2.22,1.8-2.26,3.08-4.65,4.75-7.12,.58-.94,1.5-2.52,.93-3.91-.31-.97-.53-2.28-.46-3.34,.15-1.4-.36-1.52-1.13-2.78-.78-1.26,.22-3.18,.33-4.41-.13-.21,.29-.47,.33-.64-1.37-1.76-1.82-3.67,.62-4.88,.36,1.52,2.22,1.97,2.91,2.85,1.09-.82-.06-1.99,.73-3.06l.75-.9c1.05-.65,1.93-1.33,3.21-.67,1.11,.62,2.6,1.16,3.7,1.78Z"/><g><path class="cls-2" d="M242.57,297.42c2.76,1.84,4.14,5.05,4.27,8.42,.28,6.27,.83,27.08-2.62,22.03-1.93-2.75-.69,1.68-1.65,2.75-.69,.76-.55,1.84-1.1,2.6-3.58-3.83-3.45-9.18-4.27-13.92-.69-3.98-1.1-7.96-1.38-11.93-.41-5.66-6.62-9.18-11.58-6.58,.97,.15,1.52,.31,2.07,.31,.28,.31,.28,.61,0,.77-2.21,1.68-3.31,3.82-4.14,6.73-.97,3.37-2.48,6.58-2.89,10.1-.55,4.74-2.34,9.18-3.03,13.92-.55,2.75-1.1,5.51-1.38,8.42-.69,6.12,0,16.22-.28,20.35-.14,.92-.41,1.84-.28,2.75,.55,2.45,.28,4.9,.14,7.34-.14,1.84,1.65,3.52,1.79,5.2,.41,4.44,1.1,8.72,3.17,12.7,1.52,2.91,3.58,4.44,6.62,3.98l5.65-.46c.96,0,1.65-.61,2.48-1.22,3.72-2.45,4.82-2.91,8-6.12,.41-.31,1.93-1.07,3.72-2.91,1.65-1.84,3.31-3.06,4.96-5.05,.97-1.07,2.62-1.99,3.45-2.14,.69,1.22-1.65,3.52-.55,4.44,0,.31-.14,.61-.14,.76-.97,1.53-2.62,1.99-3.31,3.21-.96,1.84-1.1,2.75-2.07,3.98-.83,.92-1.79,1.68-2.76,2.6-.41,.46-.83,1.22-1.38,1.99-2.89,3.52-3.86,5.05-6.62,6.58-2.48,1.38-4.83,3.06-7.17,4.9-2.34,1.68-5.1,2.45-7.72,3.52-2.48,.92-3.45-.46-5.65,.61-.41,.15-.97-.31-1.38-.46-.69-.31-1.38-.61-1.93,0-.14,.31-.55,.46-.69,.46-2.62-1.07-4.41-1.53-6.89-2.6-1.93-.92-5.1-5.81-5.93-8.11-1.93-4.74-3.45-8.57-3.86-13.77-.14-3.98,.28-6.12-.97-10.1-.55-1.53,0-3.37-.69-5.05-.69-1.22-.69-2.75-.28-4.13,.41-1.68,.41-3.37,.41-5.05,.28-7.04,0-14.23,1.1-21.11,.55-3.52,.14-6.88,.83-10.4,1.65-9.79,5.24-18.67,10.06-26.93,.14-.15,.28-.31,.55-.46,.14,.15,.41,.15,.55,.31,.96,1.07,1.65,.92,2.21-.31,1.24-2.29,2.9-3.98,4.83-5.51,.41-.31,.69-.92,1.38-.61,2.9,1.07,5.79-.15,8.55-.61,6.48-1.38,12.27,.31,17.78,3.82Zm-43.01,39.32c-.41,.61-.28,5.35-.28,5.81-.55,1.22,2.07,4.13,1.52,1.22-.41-2.3,2.07-16.98,.28-16.98-.14,0-1.52,9.64-1.52,9.95Z"/><path class="cls-2" d="M294.67,342.4c2.21,2.6,3.17,5.51,2.34,8.87v.92c.83,3.98,.55,6.88,0,11.02-.28,1.22,.28,2.45,.28,3.67,.14,5.2,.41,10.56,.14,15.76,0,1.99-.69,5.36-.83,7.34-.14,1.53,.28,3.67,.69,5.2,2.07,.31,3.31-.46,4.96-1.99,4.69-1.84,10.2-8.72,12.54-10.25,.14,1.84-.55,3.98-2.34,6.43-1.38,1.68-5.51,5.2-7.03,6.73-2.07,1.99-4.96,4.13-7.31,5.66-2.48,1.84-5.1,2.6-9.1,2.45-1.38,0-2.07-1.38-2.76-2.45-.69-1.38-1.24-2.3-2.07-3.37-.69,0-1.1,.46-1.38,.92-.28,.46-.69,1.22-1.1,1.22-1.79,.15-2.21,1.68-4.14,2.6-2.07,.92-2.89,0-4.96,.15-.83,0-1.52,.61-.14,.61,3.17,0-.55,1.22-4.69,.92-1.93-.15-6.07-1.38-7.17-2.91-3.03-4.28-3.72-5.35-3.86-9.03l-.28-5.97c-.28-5.97,1.79-10.1,4.14-13.46,2.76-4.13,6.2-6.43,10.75-7.65,2.21-.77,4.55-1.07,6.62-2.3,1.52-.77,2.76,.61,4.41,0,.55-4.13,0-11.63-.28-15.76,0-2.45-.69-3.06-2.76-2.14-4.14,1.84-6.89,2.45-11.44,2.6-.41,.15-.97,0-1.24,.31-2.76,2.14-4.55-.92-6.76-1.07-.14-1.07,.28-1.07,.55-1.07,3.58-1.07,7.17-2.6,9.51-2.91,3.03-.46,5.38-1.99,8.27-3.06,1.38-.46,1.93-.77,3.31-1.07,1.65-.15,3.03,.15,4.41,1.07,1.38,.76,2.62,1.84,4.27,1.68,.41-1.07-.28-1.07-1.1-1.68-1.1-.15-1.65-1.07-.69-1.07,2.07,0,4.69,1.38,6.2,3.06Zm-34.33,54.77c.97,.61,1.24,1.84,2.07,2.45,.97,.61,1.38,2.14,3.17,1.99-1.52-1.99-3.03-3.67-4-5.81-.28-.61-1.38-2.75-1.38-.61,0,.77-.69,1.53,.14,1.99Zm20.26-28.46c-.55,.77-.69,1.22-1.38,1.22-.41,0-.69-.15-1.52,.61-1.38,1.22-1.52,1.68-2.9,2.75-1.38,1.07-2.48,2.45-3.03,4.13-2.48,6.73-1.93,14.69,.14,16.83,1.52,1.53,2.34,2.91,4.14,2.14,1.24-.46,4.27-2.45,5.51-2.91,.83-.31,.97-1.38,.97-2.45,0-.77-.14-1.68,0-2.75,.28-2.75-.83-5.2-.28-9.79,.28-2.14-.28-3.98,.14-6.12,.41-1.84,.14-2.75,.14-4.74-.55,.15-1.65,.61-1.93,1.07Z"/><path class="cls-2" d="M323.34,345.07c0,.28,.14,.71,.28,1,0,.14,.14,.28,.28,.57,1.79-1.42,3.45-2.98,5.24-4.41,3.45-2.7,6.48-3.27,10.48-2.27,2.21,.57,4.41,1.85,6.07,3.98-.69,1.42-1.93,1.56-3.03,.99-.97-.43-1.52-.43-2.07,.28-.97,1.14-2.48,.43-3.17,1.99l-.83,.71c-4,1.56-6.76,3.84-8.69,8.1-.69,1.71-.41,3.27-1.52,4.83-.83,.99-1.1,2.13-.97,3.7,.14,2.56,.28,5.26,.28,7.82,.14,5.69,.69,11.23,.83,16.77,.14,2.42,0,4.69,0,7.11,0,1.28-1.93,5.83-2.62,6.54-1.79-2.27-3.31-2.42-5.38-.28-.97,.99-1.52-.28-2.21-.14-.55,.43,0,.85-.14,1.28h-.55c-2.76-2.84-4-6.25-4-10.38,.28-5.97-.28-11.94-.83-18.05-.28-2.7-.14-5.26,.14-7.96,.55-3.55,.55-7.11,.41-10.66,0-1.56,.28-3.13,.28-4.69,.14-2.84,0-5.54-.69-8.24-.28-.43-.28-1.14,.41-1.28,.69-.28,.69,.57,1.1,.85,1.24-.71,.83-1.99,.83-3.13,1.1-.85,2.48-.71,3.31-1.85,.28-.43,.83-.28,1.24,0,2.62,1.56,5.38,2.98,5.51,6.82Zm21.37,2.99c-.14,.14-.41,.28-.41,.14-2.21-.85-3.86-.57-5.51,.43-.97,.85-2.07,1.56-3.58,1.71,.41-1.14,1.38-1.28,1.93-1.85l.83-.71c.83-.14,1.38-.85,2.34-1.42,2.21-.85,3.03-.57,4.41,1.71Z"/></g></g></g></svg>